{
    "asset" : {
        "generator" : "Khronos glTF Blender I/O v1.6.16",
        "version" : "2.0"
    },
    "scene" : 0,
    "scenes" : [
        {
            "name" : "Scene",
            "nodes" : [
                0,
                1,
                2,
                3,
                4,
                5,
                6,
                7,
                8
            ]
        }
    ],
    "nodes" : [
        {
            "mesh" : 0,
            "name" : "Cube",
            "scale" : [
                0.75,
                0.0177800003439188,
                0.40639999508857727
            ],
            "translation" : [
                -0.04622998461127281,
                0,
                0
            ]
        },
        {
            "name" : "Light",
            "rotation" : [
                0.16907575726509094,
                0.7558803558349609,
                -0.27217137813568115,
                0.570947527885437
            ],
            "translation" : [
                4.076245307922363,
                5.903861999511719,
                -1.0054539442062378
            ]
        },
        {
            "name" : "Camera",
            "rotation" : [
                0.483536034822464,
                0.33687159419059753,
                -0.20870360732078552,
                0.7804827094078064
            ],
            "translation" : [
                7.358891487121582,
                4.958309173583984,
                6.925790786743164
            ]
        },
        {
            "mesh" : 1,
            "name" : "Cube.001",
            "scale" : [
                0.0177800003439188,
                0.025886353105306625,
                0.3301999866962433
            ],
            "translation" : [
                0.5515562295913696,
                -0.04267660528421402,
                -0.0034666964784264565
            ]
        },
        {
            "mesh" : 2,
            "name" : "Cube.002",
            "scale" : [
                0.0177800003439188,
                0.025886353105306625,
                0.3301999866962433
            ],
            "translation" : [
                -0.6588669419288635,
                -0.04108482599258423,
                -0.0009357899543829262
            ]
        },
        {
            "mesh" : 3,
            "name" : "Cube.003",
            "scale" : [
                0.0177800003439188,
                0.06350000202655792,
                0.07620000094175339
            ],
            "translation" : [
                -0.47950005531311035,
                0.07478787750005722,
                0.2980501651763916
            ]
        },
        {
            "mesh" : 4,
            "name" : "Cube.004",
            "scale" : [
                0.5632743835449219,
                0.007619999814778566,
                0.09999999403953552
            ],
            "translation" : [
                -0.04337621480226517,
                0.14371028542518616,
                0.29520371556282043
            ]
        },
        {
            "mesh" : 5,
            "name" : "Cube.005",
            "scale" : [
                0.0177800003439188,
                0.06350000202655792,
                0.07620000094175339
            ],
            "translation" : [
                0.3828811049461365,
                0.07303816080093384,
                0.2980501651763916
            ]
        },
        {
            "mesh" : 6,
            "name" : "Cube.006",
            "scale" : [
                0.0177800003439188,
                0.06350000202655792,
                0.07620000094175339
            ],
            "translation" : [
                -0.16936704516410828,
                0.07340986281633377,
                0.2980501651763916
            ]
        }
    ],
    "materials" : [
        {
            "doubleSided" : true,
            "name" : "wood",
            "pbrMetallicRoughness" : {
                "baseColorTexture" : {
                    "index" : 0
                },
                "roughnessFactor" : 0.4000000059604645
            }
        },
        {
            "doubleSided" : true,
            "name" : "metal",
            "pbrMetallicRoughness" : {
                "baseColorFactor" : [
                    0.007815113291144371,
                    0.0012875008396804333,
                    0.0024234806187450886,
                    1
                ]
            }
        },
        {
            "doubleSided" : true,
            "name" : "wood.001",
            "pbrMetallicRoughness" : {
                "baseColorTexture" : {
                    "index" : 1
                },
                "metallicFactor" : 0,
                "roughnessFactor" : 0.4000000059604645
            }
        }
    ],
    "meshes" : [
        {
            "name" : "Cube",
            "primitives" : [
                {
                    "attributes" : {
                        "POSITION" : 0,
                        "NORMAL" : 1,
                        "TEXCOORD_0" : 2
                    },
                    "indices" : 3,
                    "material" : 0
                }
            ]
        },
        {
            "name" : "Cube.001",
            "primitives" : [
                {
                    "attributes" : {
                        "POSITION" : 4,
                        "NORMAL" : 5,
                        "TEXCOORD_0" : 6
                    },
                    "indices" : 7,
                    "material" : 1
                }
            ]
        },
        {
            "name" : "Cube.002",
            "primitives" : [
                {
                    "attributes" : {
                        "POSITION" : 8,
                        "NORMAL" : 9,
                        "TEXCOORD_0" : 10
                    },
                    "indices" : 11,
                    "material" : 1
                }
            ]
        },
        {
            "name" : "Cube.003",
            "primitives" : [
                {
                    "attributes" : {
                        "POSITION" : 12,
                        "NORMAL" : 13,
                        "TEXCOORD_0" : 14
                    },
                    "indices" : 15,
                    "material" : 0
                }
            ]
        },
        {
            "name" : "Cube.004",
            "primitives" : [
                {
                    "attributes" : {
                        "POSITION" : 16,
                        "NORMAL" : 17,
                        "TEXCOORD_0" : 18
                    },
                    "indices" : 15,
                    "material" : 2
                }
            ]
        },
        {
            "name" : "Cube.005",
            "primitives" : [
                {
                    "attributes" : {
                        "POSITION" : 19,
                        "NORMAL" : 20,
                        "TEXCOORD_0" : 21
                    },
                    "indices" : 15,
                    "material" : 0
                }
            ]
        },
        {
            "name" : "Cube.006",
            "primitives" : [
                {
                    "attributes" : {
                        "POSITION" : 22,
                        "NORMAL" : 23,
                        "TEXCOORD_0" : 24
                    },
                    "indices" : 15,
                    "material" : 0
                }
            ]
        }
    ],
    "textures" : [
        {
            "sampler" : 0,
            "source" : 0
        },
        {
            "sampler" : 0,
            "source" : 0
        }
    ],
    "images" : [
        {
            "bufferView" : 4,
            "mimeType" : "image/png",
            "name" : "wood_table_001"
        }
    ],
    "accessors" : [
        {
            "bufferView" : 0,
            "componentType" : 5126,
            "count" : 24,
            "max" : [
                1,
                1,
                1
            ],
            "min" : [
                -1,
                -1,
                -1
            ],
            "type" : "VEC3"
        },
        {
            "bufferView" : 1,
            "componentType" : 5126,
            "count" : 24,
            "type" : "VEC3"
        },
        {
            "bufferView" : 2,
            "componentType" : 5126,
            "count" : 24,
            "type" : "VEC2"
        },
        {
            "bufferView" : 3,
            "componentType" : 5123,
            "count" : 36,
            "type" : "SCALAR"
        },
        {
            "bufferView" : 5,
            "componentType" : 5126,
            "count" : 156,
            "max" : [
                1,
                1,
                1
            ],
            "min" : [
                -1,
                -28.43636131286621,
                -1
            ],
            "type" : "VEC3"
        },
        {
            "bufferView" : 6,
            "componentType" : 5126,
            "count" : 156,
            "type" : "VEC3"
        },
        {
            "bufferView" : 7,
            "componentType" : 5126,
            "count" : 156,
            "type" : "VEC2"
        },
        {
            "bufferView" : 8,
            "componentType" : 5123,
            "count" : 324,
            "type" : "SCALAR"
        },
        {
            "bufferView" : 9,
            "componentType" : 5126,
            "count" : 152,
            "max" : [
                1,
                1,
                1
            ],
            "min" : [
                -1,
                -28.43636131286621,
                -1
            ],
            "type" : "VEC3"
        },
        {
            "bufferView" : 10,
            "componentType" : 5126,
            "count" : 152,
            "type" : "VEC3"
        },
        {
            "bufferView" : 11,
            "componentType" : 5126,
            "count" : 152,
            "type" : "VEC2"
        },
        {
            "bufferView" : 12,
            "componentType" : 5123,
            "count" : 324,
            "type" : "SCALAR"
        },
        {
            "bufferView" : 13,
            "componentType" : 5126,
            "count" : 24,
            "max" : [
                1,
                1,
                1
            ],
            "min" : [
                -1,
                -1,
                -1
            ],
            "type" : "VEC3"
        },
        {
            "bufferView" : 14,
            "componentType" : 5126,
            "count" : 24,
            "type" : "VEC3"
        },
        {
            "bufferView" : 15,
            "componentType" : 5126,
            "count" : 24,
            "type" : "VEC2"
        },
        {
            "bufferView" : 16,
            "componentType" : 5123,
            "count" : 36,
            "type" : "SCALAR"
        },
        {
            "bufferView" : 17,
            "componentType" : 5126,
            "count" : 24,
            "max" : [
                1,
                1,
                1
            ],
            "min" : [
                -1,
                -1,
                -1
            ],
            "type" : "VEC3"
        },
        {
            "bufferView" : 18,
            "componentType" : 5126,
            "count" : 24,
            "type" : "VEC3"
        },
        {
            "bufferView" : 19,
            "componentType" : 5126,
            "count" : 24,
            "type" : "VEC2"
        },
        {
            "bufferView" : 20,
            "componentType" : 5126,
            "count" : 24,
            "max" : [
                1,
                1,
                1
            ],
            "min" : [
                -1,
                -1,
                -1
            ],
            "type" : "VEC3"
        },
        {
            "bufferView" : 21,
            "componentType" : 5126,
            "count" : 24,
            "type" : "VEC3"
        },
        {
            "bufferView" : 22,
            "componentType" : 5126,
            "count" : 24,
            "type" : "VEC2"
        },
        {
            "bufferView" : 23,
            "componentType" : 5126,
            "count" : 24,
            "max" : [
                1,
                1,
                1
            ],
            "min" : [
                -1,
                -1,
                -1
            ],
            "type" : "VEC3"
        },
        {
            "bufferView" : 24,
            "componentType" : 5126,
            "count" : 24,
            "type" : "VEC3"
        },
        {
            "bufferView" : 25,
            "componentType" : 5126,
            "count" : 24,
            "type" : "VEC2"
        }
    ],
    "bufferViews" : [
        {
            "buffer" : 0,
            "byteLength" : 288,
            "byteOffset" : 0
        },
        {
            "buffer" : 0,
            "byteLength" : 288,
            "byteOffset" : 288
        },
        {
            "buffer" : 0,
            "byteLength" : 192,
            "byteOffset" : 576
        },
        {
            "buffer" : 0,
            "byteLength" : 72,
            "byteOffset" : 768
        },
        {
            "buffer" : 0,
            "byteLength" : 2006550,
            "byteOffset" : 840
        },
        {
            "buffer" : 0,
            "byteLength" : 1872,
            "byteOffset" : 2007392
        },
        {
            "buffer" : 0,
            "byteLength" : 1872,
            "byteOffset" : 2009264
        },
        {
            "buffer" : 0,
            "byteLength" : 1248,
            "byteOffset" : 2011136
        },
        {
            "buffer" : 0,
            "byteLength" : 648,
            "byteOffset" : 2012384
        },
        {
            "buffer" : 0,
            "byteLength" : 1824,
            "byteOffset" : 2013032
        },
        {
            "buffer" : 0,
            "byteLength" : 1824,
            "byteOffset" : 2014856
        },
        {
            "buffer" : 0,
            "byteLength" : 1216,
            "byteOffset" : 2016680
        },
        {
            "buffer" : 0,
            "byteLength" : 648,
            "byteOffset" : 2017896
        },
        {
            "buffer" : 0,
            "byteLength" : 288,
            "byteOffset" : 2018544
        },
        {
            "buffer" : 0,
            "byteLength" : 288,
            "byteOffset" : 2018832
        },
        {
            "buffer" : 0,
            "byteLength" : 192,
            "byteOffset" : 2019120
        },
        {
            "buffer" : 0,
            "byteLength" : 72,
            "byteOffset" : 2019312
        },
        {
            "buffer" : 0,
            "byteLength" : 288,
            "byteOffset" : 2019384
        },
        {
            "buffer" : 0,
            "byteLength" : 288,
            "byteOffset" : 2019672
        },
        {
            "buffer" : 0,
            "byteLength" : 192,
            "byteOffset" : 2019960
        },
        {
            "buffer" : 0,
            "byteLength" : 288,
            "byteOffset" : 2020152
        },
        {
            "buffer" : 0,
            "byteLength" : 288,
            "byteOffset" : 2020440
        },
        {
            "buffer" : 0,
            "byteLength" : 192,
            "byteOffset" : 2020728
        },
        {
            "buffer" : 0,
            "byteLength" : 288,
            "byteOffset" : 2020920
        },
        {
            "buffer" : 0,
            "byteLength" : 288,
            "byteOffset" : 2021208
        },
        {
            "buffer" : 0,
            "byteLength" : 192,
            "byteOffset" : 2021496
        }
    ],
    "samplers" : [
        {
            "magFilter" : 9729,
            "minFilter" : 9987
        }
    ],
    "buffers" : [
        {
            "byteLength" : 2021688,
            "uri" : "data:application/octet-stream;base64,"
        }
    ]
}
